<svg width="67" height="71" viewBox="0 0 67 71" fill="none" xmlns="http://www.w3.org/2000/svg">
<path d="M2.16828 38.0123H0V0H28.1335C31.657 0 34.5299 2.84 34.5299 6.33538H32.3617C32.3617 4.04154 30.4644 2.18462 28.1335 2.18462H2.16828V38.0123Z" fill="#E2521D"/>
<path d="M66.9458 38.0123H64.7775V2.18462H38.8665C36.5356 2.18462 34.6384 4.04154 34.6384 6.33538V37.6846H32.4701V6.33538C32.4701 2.84 35.3431 0 38.8665 0H67V38.0123H66.9458Z" fill="#E2521D"/>
<path d="M19.0267 7.81009H6.45062V9.9947H19.0267V7.81009Z" fill="#E2521D"/>
<path d="M27.6456 14.637H6.45062V16.8216H27.6456V14.637Z" fill="#E2521D"/>
<path d="M27.6456 21.3548H6.45062V23.5394H27.6456V21.3548Z" fill="#E2521D"/>
<path d="M27.6456 28.0726H6.45062V30.2572H27.6456V28.0726Z" fill="#E2521D"/>
<path d="M27.6456 34.7899H6.45062V36.9745H27.6456V34.7899Z" fill="#E2521D"/>
<path d="M59.682 34.7899H38.487V36.9745H59.682V34.7899Z" fill="#E2521D"/>
<path d="M57.5138 16.3846V28.3454H40.7095V16.3846H57.5138ZM59.682 14.2H38.5413V30.53H59.7362V14.2H59.682Z" fill="#E2521D"/>
<path d="M64.8867 71.0002H2.16907C0.976514 71.0002 0.0549927 70.0171 0.0549927 68.8702V43.1463C0.0549927 41.9448 1.03072 41.0163 2.16907 41.0163H64.8325C66.0251 41.0163 66.9466 41.9994 66.9466 43.1463V68.8156C67.0008 70.0171 66.0251 71.0002 64.8867 71.0002ZM2.22328 68.8156H64.8325V43.2009H2.22328V68.8156Z" fill="#E2521D"/>
<path d="M11.3293 48.1163H6.39642V50.3009H11.3293V48.1163Z" fill="#E2521D"/>
<path d="M19.5688 48.1163H14.6359V50.3009H19.5688V48.1163Z" fill="#E2521D"/>
<path d="M27.8082 48.1163H22.8754V50.3009H27.8082V48.1163Z" fill="#E2521D"/>
<path d="M35.9935 48.1163H31.0607V50.3009H35.9935V48.1163Z" fill="#E2521D"/>
<path d="M44.233 48.1163H39.3002V50.3009H44.233V48.1163Z" fill="#E2521D"/>
<path d="M52.4183 48.1163H47.4854V50.3009H52.4183V48.1163Z" fill="#E2521D"/>
<path d="M60.6578 48.1163H55.7249V50.3009H60.6578V48.1163Z" fill="#E2521D"/>
<path d="M11.3293 54.9433H6.39642V57.1279H11.3293V54.9433Z" fill="#E2521D"/>
<path d="M19.5688 54.9433H14.6359V57.1279H19.5688V54.9433Z" fill="#E2521D"/>
<path d="M27.8082 54.9433H22.8754V57.1279H27.8082V54.9433Z" fill="#E2521D"/>
<path d="M35.9935 54.9433H31.0607V57.1279H35.9935V54.9433Z" fill="#E2521D"/>
<path d="M44.233 54.9433H39.3002V57.1279H44.233V54.9433Z" fill="#E2521D"/>
<path d="M52.4183 54.9433H47.4854V57.1279H52.4183V54.9433Z" fill="#E2521D"/>
<path d="M60.6578 54.9433H55.7249V57.1279H60.6578V54.9433Z" fill="#E2521D"/>
<path d="M11.3293 61.7154H6.39642V63.9H11.3293V61.7154Z" fill="#E2521D"/>
<path d="M19.5688 61.7154H14.6359V63.9H19.5688V61.7154Z" fill="#E2521D"/>
<path d="M52.5267 61.7154H22.8754V63.9H52.5267V61.7154Z" fill="#E2521D"/>
<path d="M60.6578 61.7154H55.7249V63.9H60.6578V61.7154Z" fill="#E2521D"/>
<path d="M47.2686 19.8798V22.6652V25.396L49.6537 24.0306L52.093 22.6652L49.6537 21.2998L47.2686 19.8798Z" fill="#E2521D"/>
</svg>
