<svg width="70" height="59" viewBox="0 0 70 59" fill="none" xmlns="http://www.w3.org/2000/svg">
<g clip-path="url(#clip0_1_56)">
<path d="M69.8921 48.867H0.161911V0H69.8381V48.867H69.8921ZM2.32074 46.6879H67.6793V2.17913H2.32074V46.6879Z" fill="#E2521D"/>
<path d="M30.2236 32.2511V16.7247L43.3385 24.4607L30.2236 32.2511ZM32.3824 20.5382V28.4376L39.0748 24.4607L32.3824 20.5382Z" fill="#E2521D"/>
<path d="M16.7849 53.77H10.5783V55.9491H16.7849V53.77Z" fill="#E2521D"/>
<path d="M62.4441 53.77H23.5852V55.9491H62.4441V53.77Z" fill="#E2521D"/>
<path d="M70.054 53.77H66.0602V55.9491H70.054V53.77Z" fill="#E2521D"/>
<path d="M2.15883 52.2445H0V57.4744H2.15883V52.2445Z" fill="#E2521D"/>
<path d="M6.36855 52.2445H4.20972V57.4744H6.36855V52.2445Z" fill="#E2521D"/>
<path d="M20.239 58.9998C17.9722 58.9998 16.1372 57.1476 16.1372 54.805C16.1372 52.5169 17.9722 50.6102 20.239 50.6102C22.5058 50.6102 24.3408 52.4624 24.3408 54.805C24.3408 57.1476 22.5058 58.9998 20.239 58.9998ZM20.239 52.8438C19.1596 52.8438 18.2961 53.7154 18.2961 54.8595C18.2961 55.949 19.1596 56.8752 20.239 56.8752C21.3184 56.8752 22.182 56.0035 22.182 54.8595C22.182 53.7154 21.3184 52.8438 20.239 52.8438Z" fill="#E2521D"/>
<path d="M35.027 40.6407C26.2837 40.6407 19.1596 33.3951 19.1596 24.4607C19.1596 15.5262 26.2837 8.28061 35.027 8.28061C43.7702 8.28061 50.8944 15.5262 50.8944 24.4607C50.8944 33.3951 43.7702 40.6407 35.027 40.6407ZM35.027 10.4597C27.4711 10.4597 21.3184 16.7247 21.3184 24.4607C21.3184 32.1966 27.4711 38.4616 35.027 38.4616C42.5829 38.4616 48.7355 32.1421 48.7355 24.4607C48.7355 16.7247 42.5829 10.4597 35.027 10.4597Z" fill="#E2521D"/>
</g>
<defs>
<clipPath id="clip0_1_56">
<rect width="70" height="59" fill="white"/>
</clipPath>
</defs>
</svg>
