<svg width="70" height="71" viewBox="0 0 70 71" fill="none" xmlns="http://www.w3.org/2000/svg">
<g clip-path="url(#clip0_1_31)">
<path d="M24.1769 71.0001H22.0231V63.7585H13.3538C9.36923 63.7585 6.08462 60.4372 6.08462 56.4081V48.2953H0L8.18462 33.9211C8.18462 33.6489 8.18462 33.3766 8.18462 33.1588C8.18462 31.4709 8.34615 29.8375 8.66923 28.2041L10.7692 28.6397C10.4462 30.1097 10.3385 31.6343 10.3385 33.1588C10.3385 33.4855 10.3385 33.8122 10.3385 34.1389V34.4656L3.71538 46.1174H8.23846V56.4081C8.23846 59.2394 10.5 61.5806 13.3538 61.5806H24.1769V71.0001Z" fill="#E2521D"/>
<path d="M47.9769 71.0002H45.8231V61.5807H56.6462C59.4462 61.5807 61.7616 59.2394 61.7616 56.4081V46.1175H66.2846L59.6616 34.4657V34.139C59.6616 33.8123 59.6616 33.4856 59.6616 33.1589C59.6616 23.685 53.7385 15.2456 44.9077 12.1965L45.6077 10.1275C55.3 13.5032 61.8154 22.7594 61.8154 33.1589C61.8154 33.4312 61.8154 33.7034 61.8154 33.9212L70 48.2954H63.9154V56.4081C63.9154 60.4917 60.6846 63.7586 56.6462 63.7586H47.9769V71.0002Z" fill="#E2521D"/>
<path d="M21.3231 33.5943L13.677 25.7538H8.88464V0H37.9616V25.7538H21.3231V33.5943ZM10.9846 23.5759H14.5385L19.1693 28.2584V23.5759H35.7539V2.17791H10.9846V23.5759Z" fill="#E2521D"/>
<path d="M22.6693 20.3089C18.577 20.3089 15.2924 16.9332 15.2924 12.7951C15.2924 8.65711 18.6308 5.28134 22.6693 5.28134C26.7616 5.28134 30.0462 8.65711 30.0462 12.7951C30.0462 16.9332 26.7077 20.3089 22.6693 20.3089ZM22.6693 7.45926C19.7616 7.45926 17.4462 9.85496 17.4462 12.7951C17.4462 15.7353 19.8154 18.131 22.6693 18.131C25.577 18.131 27.8924 15.7353 27.8924 12.7951C27.8924 9.85496 25.5231 7.45926 22.6693 7.45926Z" fill="#E2521D"/>
<path d="M25.6958 14.7027L24.1691 16.239L28.0054 20.1369L29.5321 18.6006L25.6958 14.7027Z" fill="#E2521D"/>
<path d="M55.1923 56.0814H26.1154V30.2731H42.7V22.4871L50.4 30.2731H55.1923V56.0814ZM28.2692 53.9035H53.0384V32.451H49.4846L44.8538 27.7685V32.451H28.2692V53.9035Z" fill="#E2521D"/>
<path d="M34.4077 50.419L32.5769 49.33L40.9769 34.5202L49.3769 49.33L47.4923 50.419L40.9769 38.876L34.4077 50.419Z" fill="#E2521D"/>
<path d="M46.1461 44.9741H35.8077V47.152H46.1461V44.9741Z" fill="#E2521D"/>
</g>
<defs>
<clipPath id="clip0_1_31">
<rect width="70" height="71" fill="white"/>
</clipPath>
</defs>
</svg>
