<svg width="64" height="71" viewBox="0 0 64 71" fill="none" xmlns="http://www.w3.org/2000/svg">
<g clip-path="url(#clip0_1_145)">
<path d="M11.0043 60.1865L14.4534 48.6627L15.8221 47.3519L17.355 48.8811L16.3695 49.8642L14.2344 56.9642L21.5706 54.8342L22.5013 53.9057L24.089 55.435L22.6655 56.8004L11.0043 60.1865Z" fill="#E2521D"/>
<path d="M23.3225 56.1449L15.1104 48.0618L49.1086 14.6918L57.3755 22.7749L23.3225 56.1449ZM18.231 48.0618L23.3772 53.0864L54.2549 22.7749L49.1086 17.7503L18.231 48.0618Z" fill="#E2521D"/>
<path d="M52.065 28.0178L50.5321 26.4339L58.7442 18.3509L53.5979 13.3263L45.331 21.4093L43.7981 19.8801L53.5979 10.2678L61.8648 18.3509L52.065 28.0178Z" fill="#E2521D"/>
<path d="M60.9341 19.334L59.4012 17.7502L61.7006 15.4563C61.8101 15.3471 61.8101 15.2379 61.8101 15.1833C61.8101 15.1286 61.8101 15.0194 61.7006 14.9102L57.1018 10.4317C56.9376 10.2679 56.6638 10.2679 56.4996 10.4317L54.2002 12.7256L52.6672 11.1417L54.9666 8.84787C55.9521 7.8648 57.5945 7.8648 58.6347 8.84787L63.2335 13.3263C63.7263 13.8179 64 14.4733 64 15.1286C64 15.784 63.7263 16.4394 63.2335 16.931L60.9341 19.334Z" fill="#E2521D"/>
<path d="M51.9008 71H0V18.0231H2.18991V32.8238V68.8154H49.7109V36.7561H51.9008V71Z" fill="#E2521D"/>
<path d="M51.9008 5.95308H49.7109V2.18462H18.3405V0H51.9008V5.95308Z" fill="#E2521D"/>
<path d="M15.2199 15.1832H0.437988L15.2199 0.710083V15.1832ZM5.80326 12.9985H13.0299V5.89855L5.80326 12.9985Z" fill="#E2521D"/>
</g>
<defs>
<clipPath id="clip0_1_145">
<rect width="64" height="71" fill="white"/>
</clipPath>
</defs>
</svg>
